# xmcd
#
# Track frame offsets:
#	150
#	15387
#	26375
#	37772
#	48965
#	64945
#	79102
#	91395
#	103750
#	116797
#	137702
#	151180
#	163110
#	177290
#	191410
#	202400
#	215290
#	227177
#	258797
#
# Disc length: 3609
#
# Revision: 3
# Processed by: cddbd v1.5.1PL0 Copyright (c) Steve Scherf et al.
# Submitted via: audiograbber 1.81.03
# Normalized: r2:DSETVAR1
#
DISCID=f90e1713
DTITLE=Various Artist - The Real Blues Brothers
DYEAR=1986
DGENRE=blues
TTITLE0=Brownie McGee and Sonny Terry - Walk On
TTITLE1=Jimmy Reed - Baby What You Want Me to Do
TTITLE2=John Lee Hooker - Boom Boom Boom
TTITLE3=Eddie Taylor - Leave This Neighborhood
TTITLE4=John Lee Hooker - It Serves Me Right to Suffer
TTITLE5=Memphis Slim - Slim's Blues
TTITLE6=Pee Wee Crayton - I Love Her Still
TTITLE7=Jimmy Reed - Honest I Do
TTITLE8=John Lee Hooker - Whiskey and Women
TTITLE9=Lightnin' Hopkins - Big Car Blues
TTITLE10=John Lee Hooker - Hobo Blues
TTITLE11=Roscoe Gordon - Jelly Jelly
TTITLE12=Pee Wee Crayton - Telephone is Ringin'
TTITLE13=Memphis Slim - Messin' Around with the Blues
TTITLE14=John Lee Hooker - No Shoes
TTITLE15=Jimmy Reed - You Got Me Dizzy
TTITLE16=Billy Boy Arnold - Rockinitus
TTITLE17=Lightnin' Hopkins - Blues for Gamblers
TTITLE18=Jimmy Reed - Hush Hush
EXTD=
EXTT0=BROWNIE MCGHEE and SONY TERRY\n
EXTT1=JIMMY REED\n
EXTT2=JOHN LEE HOOKER\n
EXTT3=EDDIE TAYLOR\n
EXTT4=JOHN LEE HOOKER\n
EXTT5=MEMPHIS SLIM\n
EXTT6=PEE WEE CRAYTON\n
EXTT7=JIMMY REED\n
EXTT8=JOHN LEE HOOKER\n
EXTT9=LIGHTNIN` HOPKINS\n
EXTT10=JOHN LEE HOOKER\n
EXTT11=ROSCOE GORDON\n
EXTT12=PEE WEE CRAYTON\n
EXTT13=MEMPHIS SLIM\n
EXTT14=JOHN LEE HOOKER\n
EXTT15=JIMMY REED\n
EXTT16=BILLY BOY ARNOLD\n
EXTT17=LIGHTNIN` HOPKINS\n
EXTT18=JIMMY REED\n
PLAYORDER=
